<mxfile host="app.diagrams.net" modified="2022-08-13T11:58:23.459Z" agent="5.0 (Windows NT 10.0; Win64; x64) AppleWebKit/537.36 (KHTML, like Gecko) Chrome/104.0.5112.81 Safari/537.36 Edg/104.0.1293.54" etag="frN_vgRlz_iP-2iehv5M" version="20.2.3" type="github">
  <diagram id="lz73NLW8AhsDK_igFE9y" name="Page-1">
    <mxGraphModel dx="981" dy="520" grid="1" gridSize="10" guides="1" tooltips="1" connect="1" arrows="1" fold="1" page="1" pageScale="1" pageWidth="827" pageHeight="1169" math="0" shadow="0">
      <root>
        <mxCell id="0" />
        <mxCell id="1" parent="0" />
        <mxCell id="Euw4dMIdzzAuD8WyLnfl-28" value="" style="group" vertex="1" connectable="0" parent="1">
          <mxGeometry x="170" y="275" width="140" height="70" as="geometry" />
        </mxCell>
        <mxCell id="Euw4dMIdzzAuD8WyLnfl-10" value="&lt;font style=&quot;font-size: 9px;&quot;&gt;DPDK port 0&lt;/font&gt;" style="text;html=1;align=center;verticalAlign=middle;resizable=0;points=[];autosize=1;strokeColor=none;fillColor=none;rotation=-90;" vertex="1" parent="Euw4dMIdzzAuD8WyLnfl-28">
          <mxGeometry x="90" y="20" width="70" height="30" as="geometry" />
        </mxCell>
        <mxCell id="Euw4dMIdzzAuD8WyLnfl-12" value="&lt;font style=&quot;font-size: 9px;&quot;&gt;DPDK port 1&lt;/font&gt;" style="text;html=1;align=center;verticalAlign=middle;resizable=0;points=[];autosize=1;strokeColor=none;fillColor=none;rotation=-90;" vertex="1" parent="Euw4dMIdzzAuD8WyLnfl-28">
          <mxGeometry x="-20" y="20" width="70" height="30" as="geometry" />
        </mxCell>
        <mxCell id="Euw4dMIdzzAuD8WyLnfl-2" value="BNG-VT-1" style="shape=process;whiteSpace=wrap;html=1;backgroundOutline=1;fillColor=none;container=0;" vertex="1" parent="Euw4dMIdzzAuD8WyLnfl-28">
          <mxGeometry x="9" y="5" width="122" height="60" as="geometry" />
        </mxCell>
        <mxCell id="Euw4dMIdzzAuD8WyLnfl-5" style="edgeStyle=orthogonalEdgeStyle;rounded=0;orthogonalLoop=1;jettySize=auto;html=1;entryX=0.25;entryY=1;entryDx=0;entryDy=0;endArrow=none;endFill=0;" edge="1" parent="1" source="Euw4dMIdzzAuD8WyLnfl-2" target="Euw4dMIdzzAuD8WyLnfl-4">
          <mxGeometry relative="1" as="geometry" />
        </mxCell>
        <mxCell id="Euw4dMIdzzAuD8WyLnfl-7" value="185.163.244.4/28" style="edgeLabel;html=1;align=center;verticalAlign=middle;resizable=0;points=[];" vertex="1" connectable="0" parent="Euw4dMIdzzAuD8WyLnfl-5">
          <mxGeometry x="-0.7217" y="2" relative="1" as="geometry">
            <mxPoint x="18" y="12" as="offset" />
          </mxGeometry>
        </mxCell>
        <mxCell id="Euw4dMIdzzAuD8WyLnfl-6" style="edgeStyle=orthogonalEdgeStyle;rounded=0;orthogonalLoop=1;jettySize=auto;html=1;exitX=0;exitY=0.5;exitDx=0;exitDy=0;entryX=0.75;entryY=1;entryDx=0;entryDy=0;endArrow=none;endFill=0;" edge="1" parent="1" source="Euw4dMIdzzAuD8WyLnfl-3" target="Euw4dMIdzzAuD8WyLnfl-4">
          <mxGeometry relative="1" as="geometry" />
        </mxCell>
        <mxCell id="Euw4dMIdzzAuD8WyLnfl-8" value="185.163.244.8/28" style="edgeLabel;html=1;align=center;verticalAlign=middle;resizable=0;points=[];" vertex="1" connectable="0" parent="Euw4dMIdzzAuD8WyLnfl-6">
          <mxGeometry x="-0.728" y="-1" relative="1" as="geometry">
            <mxPoint x="-20" y="11" as="offset" />
          </mxGeometry>
        </mxCell>
        <mxCell id="Euw4dMIdzzAuD8WyLnfl-9" value="185.163.244.1/28" style="edgeLabel;html=1;align=center;verticalAlign=middle;resizable=0;points=[];" vertex="1" connectable="0" parent="Euw4dMIdzzAuD8WyLnfl-6">
          <mxGeometry x="0.648" y="1" relative="1" as="geometry">
            <mxPoint x="-29" y="-28" as="offset" />
          </mxGeometry>
        </mxCell>
        <mxCell id="Euw4dMIdzzAuD8WyLnfl-4" value="CORE" style="shape=process;whiteSpace=wrap;html=1;backgroundOutline=1;fillColor=none;" vertex="1" parent="1">
          <mxGeometry x="360" y="120" width="120" height="60" as="geometry" />
        </mxCell>
        <mxCell id="Euw4dMIdzzAuD8WyLnfl-17" style="edgeStyle=orthogonalEdgeStyle;rounded=0;orthogonalLoop=1;jettySize=auto;html=1;fontSize=9;endArrow=none;endFill=0;" edge="1" parent="1" source="Euw4dMIdzzAuD8WyLnfl-16" target="Euw4dMIdzzAuD8WyLnfl-4">
          <mxGeometry relative="1" as="geometry" />
        </mxCell>
        <mxCell id="Euw4dMIdzzAuD8WyLnfl-16" value="" style="ellipse;shape=cloud;whiteSpace=wrap;html=1;fontSize=9;" vertex="1" parent="1">
          <mxGeometry x="360" width="120" height="80" as="geometry" />
        </mxCell>
        <mxCell id="Euw4dMIdzzAuD8WyLnfl-22" value="VRRP&lt;br&gt;GROUP 1&lt;br&gt;VIP 185.163.244.14/28" style="ellipse;whiteSpace=wrap;html=1;dashed=1;fontSize=9;fillColor=none;" vertex="1" parent="1">
          <mxGeometry x="360" y="215" width="120" height="85" as="geometry" />
        </mxCell>
        <mxCell id="Euw4dMIdzzAuD8WyLnfl-23" value="IP ROUTE&amp;nbsp;&amp;nbsp;95.169.205.1/24 via 185.163.244.14" style="whiteSpace=wrap;html=1;rounded=1;arcSize=50;align=center;verticalAlign=middle;strokeWidth=1;autosize=1;spacing=4;treeFolding=1;treeMoving=1;newEdgeStyle={&quot;edgeStyle&quot;:&quot;entityRelationEdgeStyle&quot;,&quot;startArrow&quot;:&quot;none&quot;,&quot;endArrow&quot;:&quot;none&quot;,&quot;segment&quot;:10,&quot;curved&quot;:1};dashed=1;fontSize=9;fillColor=none;" vertex="1" parent="1">
          <mxGeometry x="540" y="90" width="240" height="30" as="geometry" />
        </mxCell>
        <mxCell id="Euw4dMIdzzAuD8WyLnfl-24" value="" style="edgeStyle=entityRelationEdgeStyle;startArrow=none;endArrow=none;segment=10;curved=1;rounded=0;fontSize=9;" edge="1" target="Euw4dMIdzzAuD8WyLnfl-23" parent="1">
          <mxGeometry relative="1" as="geometry">
            <mxPoint x="480" y="150" as="sourcePoint" />
          </mxGeometry>
        </mxCell>
        <mxCell id="Euw4dMIdzzAuD8WyLnfl-27" style="edgeStyle=orthogonalEdgeStyle;rounded=0;orthogonalLoop=1;jettySize=auto;html=1;entryX=1;entryY=0.75;entryDx=0;entryDy=0;fontSize=9;endArrow=none;endFill=0;" edge="1" parent="1" source="Euw4dMIdzzAuD8WyLnfl-25" target="Euw4dMIdzzAuD8WyLnfl-3">
          <mxGeometry relative="1" as="geometry" />
        </mxCell>
        <mxCell id="Euw4dMIdzzAuD8WyLnfl-25" value="L2SUBS&lt;br&gt;VLAN 310" style="ellipse;shape=cloud;whiteSpace=wrap;html=1;dashed=1;fontSize=9;fillColor=none;" vertex="1" parent="1">
          <mxGeometry x="354" y="450" width="120" height="80" as="geometry" />
        </mxCell>
        <mxCell id="Euw4dMIdzzAuD8WyLnfl-11" value="&lt;font style=&quot;font-size: 9px;&quot;&gt;DPDK port 0&lt;/font&gt;" style="text;html=1;align=center;verticalAlign=middle;resizable=0;points=[];autosize=1;strokeColor=none;fillColor=none;rotation=-90;" vertex="1" parent="1">
          <mxGeometry x="510" y="295" width="70" height="30" as="geometry" />
        </mxCell>
        <mxCell id="Euw4dMIdzzAuD8WyLnfl-13" value="&lt;font style=&quot;font-size: 9px;&quot;&gt;DPDK port 1&lt;/font&gt;" style="text;html=1;align=center;verticalAlign=middle;resizable=0;points=[];autosize=1;strokeColor=none;fillColor=none;rotation=-90;" vertex="1" parent="1">
          <mxGeometry x="620" y="295" width="70" height="30" as="geometry" />
        </mxCell>
        <mxCell id="Euw4dMIdzzAuD8WyLnfl-3" value="BNG-VT-2" style="shape=process;whiteSpace=wrap;html=1;backgroundOutline=1;fillColor=none;" vertex="1" parent="1">
          <mxGeometry x="540" y="280" width="122" height="60" as="geometry" />
        </mxCell>
      </root>
    </mxGraphModel>
  </diagram>
</mxfile>
